<svg xmlns="http://www.w3.org/2000/svg" xmlns:xlink="http://www.w3.org/1999/xlink" version="1.1" viewBox="0 0 24 24"><g fill="none" stroke="#000" stroke-linecap="round" stroke-linejoin="round" stroke-width="1"><path d="M18.7185,2.67257c3.70998,1.5621 3.70998,4.09476 0,5.65685c-3.70998,1.5621 -9.72505,1.5621 -13.435,0c-3.70998,-1.5621 -3.70998,-4.09476 -2.66454e-15,-5.65685c3.70998,-1.5621 9.72505,-1.5621 13.435,-8.88178e-16"/><path d="M21.5,9.5c0,2.21 -4.254,4 -9.5,4c-5.246,0 -9.5,-1.79 -9.5,-4"/><path d="M21.5,14c0,2.21 -4.254,4 -9.5,4c-5.246,0 -9.5,-1.79 -9.5,-4"/><path d="M2.5,5.5v13c0,2.21 4.254,4 9.5,4c5.246,0 9.5,-1.79 9.5,-4v-13"/></g></svg>