<svg width="588" height="145" viewBox="0 0 588 145" fill="none" xmlns="http://www.w3.org/2000/svg">
<path fill-rule="evenodd" clip-rule="evenodd" d="M56.4737 14.8177C58.4319 12.8707 61.5977 12.8797 63.5448 14.8379L75.4446 26.8058C77.3838 28.7561 77.3838 31.9064 75.4446 33.8567L63.5448 45.8246C61.5977 47.7828 58.4319 47.7918 56.4737 45.8448C54.5155 43.8977 54.5065 40.7319 56.4536 38.7737L59.8765 35.3312H45.2436C36.438 35.3312 29.2997 42.4696 29.2997 51.2751C29.2997 60.0807 36.438 67.219 45.2435 67.219H98.5544C112.883 67.219 124.498 78.8345 124.498 93.1629C124.498 107.491 112.883 119.107 98.5544 119.107H48.0993C45.3379 119.107 43.0993 116.868 43.0993 114.107C43.0993 111.345 45.3379 109.107 48.0993 109.107H98.5544C107.36 109.107 114.498 101.968 114.498 93.1629C114.498 84.3573 107.36 77.219 98.5544 77.219H45.2435C30.9151 77.219 19.2997 65.6035 19.2997 51.2751C19.2997 36.9467 30.9151 25.3312 45.2436 25.3312H59.8765L56.4536 21.8887C54.5065 19.9306 54.5155 16.7647 56.4737 14.8177Z" fill="#041B34"/>
<path fill-rule="evenodd" clip-rule="evenodd" d="M100.699 30.3312C100.699 26.456 103.815 23.3633 107.598 23.3633C111.382 23.3633 114.498 26.456 114.498 30.3312C114.498 34.2065 111.382 37.2992 107.598 37.2992C103.815 37.2992 100.699 34.2065 100.699 30.3312ZM107.598 13.3633C98.2381 13.3633 90.6986 20.9871 90.6986 30.3312C90.6986 39.6754 98.2381 47.2992 107.598 47.2992C116.959 47.2992 124.498 39.6754 124.498 30.3312C124.498 20.9871 116.959 13.3633 107.598 13.3633ZM29.2997 114.107C29.2997 110.232 32.4157 107.139 36.1995 107.139C39.9833 107.139 43.0993 110.232 43.0993 114.107C43.0993 117.982 39.9833 121.075 36.1995 121.075C32.4157 121.075 29.2997 117.982 29.2997 114.107ZM36.1995 97.1388C26.8391 97.1388 19.2997 104.763 19.2997 114.107C19.2997 123.451 26.8391 131.075 36.1995 131.075C45.5599 131.075 53.0993 123.451 53.0993 114.107C53.0993 104.763 45.5599 97.1388 36.1995 97.1388Z" fill="#FF2B20"/>
<path d="M201.452 39.9285C208.609 39.9285 214.437 40.6294 218.938 42.0312C223.439 43.433 226.722 45.7939 228.787 49.114C230.927 52.3602 231.997 56.9714 231.997 62.9475C231.997 66.1938 231.517 69.1449 230.558 71.801C229.673 74.457 228.123 76.6335 225.91 78.3304C223.697 79.9536 220.672 80.9865 216.835 81.4291V82.0931C218.237 82.2407 219.713 82.6834 221.262 83.4212C222.885 84.159 224.361 85.3763 225.689 87.0732C227.091 88.6964 228.087 90.9466 228.677 93.824L234.985 117.396H213.183L207.76 94.488C207.244 92.1271 206.432 90.5777 205.326 89.8399C204.219 89.0284 202.596 88.6226 200.456 88.6226C195.144 88.5488 190.754 88.5119 187.287 88.5119C183.819 88.5119 180.868 88.475 178.433 88.4012C176.072 88.3275 173.822 88.2168 171.683 88.0692L172.015 73.5717H201.01C203.666 73.5717 205.695 73.3134 207.096 72.797C208.572 72.2805 209.605 71.3583 210.195 70.0303C210.785 68.6285 211.081 66.7102 211.081 64.2755C211.081 61.767 210.785 59.8488 210.195 58.5208C209.605 57.1928 208.572 56.2705 207.096 55.7541C205.695 55.2376 203.666 54.9794 201.01 54.9794C193.706 54.9794 187.508 55.0163 182.417 55.0901C177.4 55.1638 173.97 55.2745 172.125 55.4221L170.465 41.0352C173.712 40.6663 176.773 40.408 179.651 40.2605C182.528 40.1129 185.664 40.0391 189.058 40.0391C192.525 39.9654 196.657 39.9285 201.452 39.9285ZM190.828 41.0352V117.396H170.465V41.0352H190.828ZM261.001 62.3942V97.2547C260.928 98.9516 261.297 100.169 262.108 100.907C262.92 101.645 264.248 102.013 266.092 102.013C267.863 102.013 269.671 101.755 271.515 101.239C273.433 100.722 275.831 99.7632 278.708 98.3614L280.036 108.654C276.2 112.121 272.4 114.703 268.638 116.4C264.875 118.097 260.965 118.946 256.907 118.946C246.209 118.946 240.86 113.818 240.86 103.563V62.3942H261.001ZM296.858 62.3942V117.396H281.032L278.598 106.33L276.606 105.002V62.3942H296.858ZM347.375 60.8448C357.999 60.8448 363.311 65.9724 363.311 76.2277V117.396H343.169V82.5358C343.169 80.7651 342.8 79.5478 342.063 78.8838C341.399 78.2197 340.181 77.8877 338.411 77.8877C336.566 77.8877 334.574 78.146 332.434 78.6624C330.369 79.1789 327.75 80.138 324.577 81.5398L323.581 71.137C327.418 67.7431 331.365 65.1978 335.423 63.5009C339.48 61.7302 343.464 60.8448 347.375 60.8448ZM322.474 62.3942L324.909 73.461L326.68 74.8997V117.396H306.538V62.3942H322.474ZM461.286 62.3942L449.002 112.306C448.707 113.855 447.932 115.109 446.678 116.068C445.498 116.954 444.059 117.396 442.362 117.396H427.864C426.094 117.396 424.544 116.843 423.216 115.736C421.888 114.63 421.114 113.191 420.892 111.42L416.355 83.6425C416.207 82.0194 416.06 80.4331 415.912 78.8838C415.838 77.3344 415.691 75.785 415.47 74.2357H414.031C413.957 75.785 413.809 77.3344 413.588 78.8838C413.441 80.4331 413.256 82.0194 413.035 83.6425L408.608 111.42C408.387 113.191 407.612 114.63 406.284 115.736C404.956 116.843 403.37 117.396 401.525 117.396H387.249C385.626 117.396 384.187 116.954 382.933 116.068C381.679 115.109 380.904 113.855 380.609 112.306L368.325 62.3942H388.356L393.889 95.484C394.111 97.0334 394.332 98.5827 394.553 100.132C394.775 101.681 394.922 103.268 394.996 104.891H396.324C396.545 103.268 396.767 101.681 396.988 100.132C397.209 98.5827 397.394 97.0334 397.541 95.484L401.968 68.2596C402.189 66.5627 402.927 65.1609 404.181 64.0542C405.509 62.9475 407.096 62.3942 408.94 62.3942H420.671C422.442 62.3942 423.954 62.9475 425.208 64.0542C426.536 65.1609 427.311 66.5996 427.532 68.3703L431.848 95.484C432.07 97.0334 432.291 98.5827 432.512 100.132C432.808 101.681 433.029 103.268 433.176 104.891H434.504C434.726 103.268 434.91 101.681 435.058 100.132C435.205 98.5827 435.427 97.0334 435.722 95.484L441.255 62.3942H461.286ZM496.523 60.8448C501.466 60.8448 505.635 61.5088 509.028 62.8368C512.496 64.1649 515.115 66.3782 516.886 69.4769C518.657 72.5757 519.542 76.8548 519.542 82.3145V117.396H503.495L500.728 105.555L499.4 103.563V82.2038C499.326 79.9167 498.736 78.2935 497.63 77.3344C496.597 76.3015 494.678 75.785 491.875 75.785C488.997 75.785 485.456 75.8588 481.251 76.0064C477.045 76.0802 472.655 76.2646 468.081 76.5597L466.31 63.6115C469.04 63.0951 472.213 62.6524 475.828 62.2835C479.517 61.8408 483.206 61.5088 486.895 61.2875C490.584 60.9924 493.793 60.8448 496.523 60.8448ZM511.574 83.6425L511.463 93.824H487.891C486.194 93.8978 484.94 94.3404 484.128 95.152C483.39 95.8898 483.021 96.9227 483.021 98.2507V100.353C483.021 101.755 483.464 102.862 484.349 103.673C485.308 104.411 486.71 104.78 488.555 104.78C490.399 104.78 492.354 104.374 494.42 103.563C496.486 102.751 498.515 101.645 500.507 100.243C502.499 98.841 504.233 97.3285 505.708 95.7054V102.788C505.118 103.969 504.196 105.444 502.942 107.215C501.761 108.986 500.212 110.793 498.294 112.638C496.375 114.408 494.051 115.884 491.321 117.064C488.592 118.245 485.419 118.835 481.804 118.835C478.484 118.835 475.422 118.245 472.619 117.064C469.815 115.884 467.565 114.15 465.868 111.863C464.245 109.576 463.433 106.698 463.433 103.231V97.6974C463.433 93.2707 464.982 89.8399 468.081 87.4052C471.254 84.8967 475.533 83.6425 480.919 83.6425H511.574ZM586.85 62.3942L568.368 116.843C567.409 119.72 566.081 122.672 564.384 125.696C562.687 128.721 560.474 131.414 557.744 133.775C555.088 136.21 551.842 137.981 548.005 139.087C544.169 140.194 539.668 140.305 534.504 139.419L533.065 128.353C537.566 127.32 541.107 125.918 543.689 124.147C546.345 122.376 548.374 119.905 549.776 116.732L553.539 108.432C554.35 106.662 555.051 104.485 555.641 101.903C556.305 99.2467 556.822 96.9965 557.191 95.152L565.38 62.3942H586.85ZM543.911 62.3942L552.211 95.152C552.506 96.7014 552.764 98.2876 552.985 99.9108C553.28 101.534 553.539 103.12 553.76 104.669H556.859L550.661 117.396H546.013C544.464 117.396 543.099 116.954 541.919 116.068C540.812 115.183 540.037 114.039 539.595 112.638L522.552 62.3942H543.911Z" fill="#041B34"/>
</svg>
